<?xml version="1.0" encoding="UTF-8"?>
<svg id="Layer_1" data-name="Layer 1" xmlns="http://www.w3.org/2000/svg" viewBox="0 0 141.65 98.54">
  <path d="M72.05,.41c3.53-1.81,4.77,2.77,6.21,4.98,1.71,3.48,7.6,.66,8.9,4.59,.92,4.13-5.92,5.28-4.49,9.55-.12,1.91,1.48,4.58-.43,6-1.76,2.22-4.38-.1-6.31-.79-3.63-3-6.99,3.25-10.76,1.25-2.51-2.38-.2-5.98-.68-8.91-1.46-2.47-5.45-4.07-4.52-7.42,1.68-2.93,5.69-1.56,8.17-3.23,1.51-1.85,2.01-4.53,3.92-6.01Z"/>
  <path d="M26.93,7.24c2.66-1.53,6.34-1.02,8.43,1.25,3.04,3.82,3.75,9.2,7.47,12.49,3.74,2.11,8.27,1.53,12.32,2.59,4.23,.58,6.84,5.81,4.98,9.6-2.63,4.67-8.53,6.96-10.08,12.29,0,4.27,1.45,8.38,1.75,12.64-.15,3.86-3.87,7.29-7.78,6.72-4.85-1.14-8.62-5.07-13.56-5.9-5.03,.66-8.84,4.69-13.72,5.9-3.48,.51-6.82-2.09-7.73-5.36-.38-5.04,2.15-9.94,1.29-14.98C7.93,38.45-1.83,35.8,.3,28.14c2.26-6.31,10.06-4.66,15.22-6.12,6.78-2,5.92-11.27,11.41-14.77Z"/>
  <path d="M95.24,16.32c3.55-1.44,7.88-.38,10.48,2.4,4.3,5.2,5.29,12.54,10.13,17.31,6.15,4.08,14.31,1.97,20.87,5.07,4.38,2.45,6.29,8.5,3.89,12.97-3.71,6.17-11.4,9.39-13.83,16.38-.71,6.27,2.05,12.34,2.2,18.61-.05,5.72-5.97,10.47-11.58,9.3-6.6-1.84-11.82-7.19-18.68-8.21-6.88,.94-12.12,6.28-18.68,8.18-6.58,1.51-13.18-5.15-11.53-11.71,.45-5.98,3.65-12.2,1.34-18.06-3.25-5.35-8.91-8.67-12.65-13.63-3.29-4.75-1.06-12.12,4.3-14.29,5.96-2.02,12.58-1.27,18.44-3.6,7.73-4.73,6.69-17,15.33-20.71Z"/>
</svg>