<?xml version="1.0" encoding="utf-8"?>
<!-- Generator: Adobe Illustrator 28.2.0, SVG Export Plug-In . SVG Version: 6.00 Build 0)  -->
<svg version="1.1" id="Layer_1" xmlns="http://www.w3.org/2000/svg" xmlns:xlink="http://www.w3.org/1999/xlink" x="0px" y="0px"
	 viewBox="0 0 200 200" style="enable-background:new 0 0 200 200;" xml:space="preserve">
<style type="text/css">
	.st0{fill:#A2EAC7;}
</style>
<g>
	<path class="st0" d="M163.6,17.4C163.6,17.4,163.6,17.4,163.6,17.4C163.6,17.5,163.5,17.5,163.6,17.4c-0.3,0.9-7.8,23.1-23.4,47.7
		c-6.8,10.7-15,21.8-24.9,31.9c-1.1,1.1-2.2,2.2-3.3,3.3c-23,22.7-44.6,36.4-61.5,42.2c-6.3,2.2-12.1,3.2-17,3.2V17.4h-29v164.7v0.4
		c39.4,0,72.8-13.4,107.3-42.6c0.1-0.1,0.1-0.1,0.2-0.2c7-6,14.1-12.6,21.3-20c0.2-0.2,0.3-0.3,0.5-0.5v46.2c0,9.4,7.6,17,17,17h0
		c9.4,0,17-7.6,17-17V74.6c18.2-29.9,27.1-56,27.5-57.2c0,0,0,0,0,0c0,0,0,0,0,0H163.6z"/>
	<ellipse transform="matrix(0.7106 -0.7035 0.7035 0.7106 -22.0431 75.6815)" class="st0" cx="81" cy="64.6" rx="17" ry="17"/>
</g>
</svg>
