<?xml version="1.0" encoding="UTF-8"?>
<svg id="Layer_1" data-name="Layer 1" xmlns="http://www.w3.org/2000/svg" viewBox="0 0 444.29 143.71">
  <path d="M82.31,100.51h54.63c.88,1.47,1.75,2.93,2.63,4.4-13.03,12.14-25.97,24.36-39.17,36.31-1.69,1.53-4.69,2.25-7.09,2.26-30.45,.15-60.9,.1-93.29,.1C.02,111.38-.09,80.5,.21,49.63c.03-2.63,2.28-5.75,4.34-7.77C17.1,29.59,29.89,17.57,45.17,3.02v63.97C67.57,42.94,87.12,21.95,106.26,1.4c13.8,13.8,24.13,24.12,37.2,37.18-20.28,18.57-41.8,38.27-63.31,57.96,.72,1.32,1.44,2.65,2.17,3.97Z"/>
  <path d="M260.12,0c13.28,13.64,23.26,23.88,35.65,36.61-21.66,20.27-43.05,40.27-64.43,60.28,.6,1.1,1.19,2.19,1.79,3.29h54.88c.76,1.23,1.52,2.45,2.28,3.68-13.11,12.69-26.13,25.47-39.44,37.94-1.6,1.5-4.79,1.81-7.24,1.82-29.53,.12-59.06,.08-91.48,.08,0-17.03-.02-33.34,0-49.65q.07-50.33,36.83-84.65c1.35-1.26,3.07-2.14,7.16-4.95V63.04c1.25,.59,2.5,1.18,3.76,1.78,19.84-21.35,39.69-42.7,60.24-64.81Z"/>
  <path d="M347.65,7.07v59.37c21.96-23.04,42.01-44.09,63.18-66.29,12.79,13.82,22.46,24.26,33.47,36.15-20.26,19.06-41.56,39.09-62.86,59.13,.88,1.5,1.77,3,2.65,4.49h54.44c.68,1.23,1.35,2.46,2.03,3.69-12.91,12.8-25.77,25.66-38.83,38.31-1.29,1.25-3.83,1.65-5.8,1.66-30.42,.1-60.84,.07-93.14,.07,0-32.01-.26-62.4,.33-92.77,.07-3.86,4.14-8.03,7.14-11.36,10.69-11.89,21.71-23.47,32.6-35.17,1.6,.91,3.2,1.81,4.81,2.72Z"/>
</svg>