<?xml version="1.0" encoding="utf-8"?>
<!-- Generator: Adobe Illustrator 28.2.0, SVG Export Plug-In . SVG Version: 6.00 Build 0)  -->
<svg version="1.1" id="Layer_3" xmlns="http://www.w3.org/2000/svg" xmlns:xlink="http://www.w3.org/1999/xlink" x="0px" y="0px"
	 viewBox="0 0 500 500" style="enable-background:new 0 0 500 500;" xml:space="preserve">
<style type="text/css">
	.st0{fill:#67776C;}
	.st1{fill:#D5F6E6;}
	.st2{fill:#101512;}
	.st3{fill:#93A399;}
	.st4{fill:#2C3A32;}
	.st5{fill:#42574A;}
	.st6{fill:#1E2822;}
	.st7{fill:#56F1A6;}
	.st8{fill:#A2EAC7;}
	.st9{fill:#AED1BE;}
</style>
<g>
	<path class="st0" d="M469.1,250c0,25.2-4.2,49.4-12.1,71.9L250,250l70.4-207.5C406.9,71.8,469.1,153.6,469.1,250z"/>
	<circle class="st1" cx="250" cy="250" r="245"/>
	<circle class="st2" cx="250" cy="250" r="219.1"/>
	<path class="st0" d="M469.1,250c0,25.2-4.2,49.4-12.1,71.9L250,250l70.4-207.5C406.9,71.8,469.1,153.6,469.1,250z"/>
	<path class="st3" d="M462.5,196.4L250,250l169.7-138.6C439.8,135.9,454.6,164.8,462.5,196.4z"/>
	<path class="st0" d="M250,250l-70.4,207.6C93.1,428.2,30.9,346.3,30.9,250c0-25.2,4.2-49.3,12.1-71.8l0.1-0.1L250,250z"/>
	<path class="st3" d="M250,250L78.3,386.1c-19.7-24.8-34-53.9-41.6-85.7L250,250z"/>
	<g>
		<path class="st4" d="M250,160.3c-49.5,0-89.7,40.2-89.7,89.7s40.2,89.7,89.7,89.7s89.7-40.2,89.7-89.7S299.5,160.3,250,160.3z
			 M250,278.5c-15.7,0-28.5-12.7-28.5-28.5s12.7-28.5,28.5-28.5s28.5,12.7,28.5,28.5S265.7,278.5,250,278.5z"/>
		<path class="st2" d="M250,342.3c-50.9,0-92.3-41.4-92.3-92.3c0-50.9,41.4-92.3,92.3-92.3c50.9,0,92.3,41.4,92.3,92.3
			S300.9,342.3,250,342.3z M250,162.9c-48,0-87.1,39.1-87.1,87.1s39.1,87.1,87.1,87.1s87.1-39.1,87.1-87.1S298,162.9,250,162.9z
			 M250,281.1c-17.1,0-31.1-13.9-31.1-31.1c0-17.1,13.9-31.1,31.1-31.1s31.1,13.9,31.1,31.1C281,267.1,267.1,281.1,250,281.1z
			 M250,224.1c-14.3,0-25.9,11.6-25.9,25.9s11.6,25.9,25.9,25.9c14.3,0,25.9-11.6,25.9-25.9S264.3,224.1,250,224.1z"/>
	</g>
	<g>
		<path class="st3" d="M136.5,417.1C92.8,394.7,61.1,351,50.1,303.5c-5-21.6-6-44.5-1.7-66.1l0.2,6.6c0.3,23.8,4.6,47.6,12.3,70.1
			C75.3,355.4,101.9,390.4,136.5,417.1L136.5,417.1z"/>
	</g>
	<g>
		<g>
			<path class="st3" d="M365.8,84.5c36.3,20.2,64.5,55.2,78.4,94.3c10.9,30.4,13.7,64.2,6.4,95.8c0.8-11.3,0.6-22.8-0.2-34
				c-0.1-1.7-0.4-5.1-0.6-6.8c-4.4-42.7-22.1-83.5-49.7-116.3c-2.6-2.9-6.3-7.3-9.1-10.1c-1.4-1.4-5.8-5.8-7.2-7.2
				c-1.8-1.7-5.7-5.2-7.5-6.9C373.2,90.5,368.9,87.2,365.8,84.5L365.8,84.5z"/>
		</g>
	</g>
	<path class="st5" d="M250,452.1c-111.4,0-202.1-90.7-202.1-202.1S138.6,47.9,250,47.9S452.1,138.6,452.1,250S361.4,452.1,250,452.1
		z M250,51.8C140.7,51.8,51.8,140.7,51.8,250S140.7,448.2,250,448.2S448.2,359.3,448.2,250C448.2,140.7,359.3,51.8,250,51.8z"/>
	<g>
		<g>
			<path class="st3" d="M352.9,107.1c44.6,24.5,73.8,74.3,75.6,125c0.4,11.6-0.4,23.4-3.1,34.7c1-34.1-6.1-68.5-22.2-98.6
				c-6.1-11.7-13.8-22.7-22-32.9C372.7,125,363.1,115.6,352.9,107.1L352.9,107.1z"/>
		</g>
	</g>
	<g>
		<g>
			<path class="st3" d="M344.6,119.5c37.5,20.3,63,60.5,68,102.6c0.8,7,1.1,14.1,0.8,21.2s-1.1,14.1-2.8,20.9c0-1.7-0.1-3.5-0.1-5.2
				c-0.8-25.5-6.2-51.2-16.9-74.4C382.3,159.6,365,137.7,344.6,119.5L344.6,119.5z"/>
		</g>
	</g>
	<g>
		<path class="st3" d="M150.8,395.6c-41.7-21.4-70.8-64.9-77.6-111c-2.3-15.4-2.1-31.2,1-46.3c0.2,3.8,0.3,7.6,0.3,11.4l0.9,11.4
			l1.4,11.3c2,11,4.6,22.3,8.3,32.9C97.8,341.3,120.8,371.9,150.8,395.6L150.8,395.6z"/>
	</g>
	<g>
		<path class="st3" d="M158.8,382.9c-38.5-19.1-65.1-59.3-71-101.6c-2-14.2-1.6-28.6,1.4-42.4c0.2,3.5,0.3,7,0.3,10.5
			c0.3,5.9,1.4,14.7,2.2,20.7c1.8,9.8,4.3,20.6,7.6,30c5.1,14.5,12.2,28.5,20.8,41.3C130.8,357,144,370.9,158.8,382.9L158.8,382.9z"
			/>
	</g>
	<path class="st5" d="M250,426.2c-97.2,0-176.2-79-176.2-176.2S152.8,73.8,250,73.8s176.2,79,176.2,176.2S347.2,426.2,250,426.2z
		 M250,77.7C155,77.7,77.7,155,77.7,250c0,95,77.3,172.3,172.3,172.3c95,0,172.3-77.3,172.3-172.3S345,77.7,250,77.7z"/>
	<path class="st5" d="M250,411.2c-88.9,0-161.2-72.3-161.2-161.2S161.1,88.8,250,88.8S411.2,161.1,411.2,250S338.9,411.2,250,411.2z
		 M250,92.6c-86.8,0-157.4,70.6-157.4,157.4S163.2,407.4,250,407.4S407.4,336.8,407.4,250C407.3,163.2,336.8,92.6,250,92.6z"/>
	<g>
		<g>
			<path class="st3" d="M181.4,346.1c-39.4-13.7-63.4-63-49.3-102.4l0.4,3.7c1.7,18.1,6.2,36,14.2,52.3
				C154.9,317.3,167.3,332.7,181.4,346.1L181.4,346.1z"/>
		</g>
	</g>
	<g>
		<g>
			<path class="st3" d="M315.6,151.8c29.6,11.7,50.3,41.7,54.3,72.9c1.4,10.5,0.9,21.2-1.9,31.2c-1.6-18.9-5.8-37.1-13.9-54.1
				C345.1,182.6,331.5,165.8,315.6,151.8L315.6,151.8z"/>
		</g>
	</g>
	<path class="st5" d="M250,368.1c-65.1,0-118.1-53-118.1-118.1s53-118.1,118.1-118.1s118.1,53,118.1,118.1
		C368.1,315.1,315.1,368.1,250,368.1z M250,135.8c-63,0-114.2,51.2-114.2,114.2S187,364.2,250,364.2c63,0,114.2-51.2,114.2-114.2
		S313,135.8,250,135.8z"/>
	<circle class="st2" cx="250" cy="250" r="15.5"/>
	<g>
		<g>
			<g>
				<path class="st6" d="M334.5,228.7l-59.5,15c-0.9-3.7-2.6-7.1-5-10l47.5-38.7C325.4,204.6,331.3,216.1,334.5,228.7z"/>
			</g>
			<g>
				<path class="st6" d="M229.7,266l-48,38c-7.8-9.8-13.6-21.4-16.6-34l59.6-14.1C225.7,259.7,227.4,263.1,229.7,266z"/>
			</g>
		</g>
	</g>
	<path class="st7" d="M250,184.4c-36.2,0-65.6,29.3-65.6,65.6s29.3,65.6,65.6,65.6s65.6-29.3,65.6-65.6S286.2,184.4,250,184.4z
		 M250,258.1c-4.4,0-8-3.6-8-8c0-4.4,3.6-8,8-8c4.4,0,8,3.6,8,8C258,254.4,254.4,258.1,250,258.1z"/>
	<g>
		<path class="st8" d="M313.5,233.9L257.8,248c-0.3-1.2-0.8-2.2-1.6-3.1l44.6-36.4C306.8,215.8,311.2,224.5,313.5,233.9z"/>
		<path class="st8" d="M243.7,254.9l-45.1,35.7c-5.9-7.3-10.2-16-12.4-25.6l55.9-13.3C242.4,253,242.9,254.1,243.7,254.9z"/>
	</g>
	<g>
		<path class="st9" d="M226.6,467.9l-2.8,25.7c-18.2-1.9-35.8-5.9-52.5-11.5l8.3-24.5C194.6,462.7,210.3,466.2,226.6,467.9z"/>
		<path class="st9" d="M255.6,494.9c-1.9,0.1-3.7,0.1-5.6,0.1c-4.1,0-8.3-0.1-12.4-0.3l1.3-25.9c3.7,0.2,7.3,0.3,11.1,0.3
			c1.7,0,3.4,0,5-0.1L255.6,494.9z"/>
		<path class="st9" d="M492.7,283.5C482.2,360.4,436,426,371.3,462.9l-12.8-22.5c57.9-33,99.2-91.7,108.6-160.5L492.7,283.5z"/>
		<path class="st9" d="M63.9,365.7l-22,13.7c-14.1-22.7-24.7-47.8-30.8-74.6l25.2-5.8C41.8,323,51.3,345.4,63.9,365.7z"/>
		<path class="st9" d="M191.7,38.8c-71,19.5-127.5,73.9-150.2,143.5l-24.6-8C42.2,96.4,105.4,35.6,184.8,13.8L191.7,38.8z"/>
		<path class="st9" d="M315,13.8l-6.8,25c-11.2-3.1-22.7-5.3-34.5-6.5l2.8-25.8C289.7,7.9,302.5,10.3,315,13.8z"/>
		<path class="st9" d="M458.1,120.7l-22,13.7c-9.3-15-20.3-28.7-32.8-40.9l18.1-18.5C435.4,88.6,447.7,104,458.1,120.7z"/>
	</g>
</g>
</svg>
