<?xml version="1.0" encoding="utf-8"?>
<!-- Generator: Adobe Illustrator 28.2.0, SVG Export Plug-In . SVG Version: 6.00 Build 0)  -->
<svg version="1.1" id="Layer_1" xmlns="http://www.w3.org/2000/svg" xmlns:xlink="http://www.w3.org/1999/xlink" x="0px" y="0px"
	 viewBox="0 0 200 200" style="enable-background:new 0 0 200 200;" xml:space="preserve">
<path d="M152,101.9L152,101.9c3.8-2.2,7.7-3.5,10.8-3.5h4.6c6.6,0,15.6-5.3,20.2-11.9l3.2-4.6c4.6-6.6,3-11.9-3.6-11.9h-4.6
	c-6.6,0-15.6,5.3-20.2,11.9l-3.2,4.6c-2.2,3.1-5.6,6.2-9.4,8.4l0,0c-3.8,2.2-7.7,3.5-10.8,3.5h-4.6c-3.1,0-5.3-1.3-6-3.5l0,0
	c-0.7-2.2,0.2-5.2,2.4-8.4l3.2-4.6c4.6-6.6,3-11.9-3.6-11.9h-0.8H126h-0.8c-6.6,0-15.6,5.3-20.2,11.9l-3.2,4.6
	c-2.2,3.1-5.6,6.2-9.4,8.4l0,0c-3.8,2.2-7.7,3.5-10.8,3.5H77c-3.1,0-5.3-1.3-6-3.5l0,0c-0.7-2.2,0.2-5.2,2.4-8.4l3.2-4.6
	c4.6-6.6,3-11.9-3.6-11.9h-4.6c-6.6,0-15.6,5.3-20.2,11.9l-3.2,4.6c-4.6,6.6-3,11.9,3.6,11.9h4.6c3.1,0,5.3,1.3,6,3.5
	s-0.2,5.2-2.4,8.4l-3.2,4.6c-2.2,3.1-5.6,6.2-9.4,8.4l0,0c-3.8,2.2-7.7,3.5-10.8,3.5h-4.6c-6.6,0-15.6,5.3-20.2,11.9l-3.2,4.6
	c-4.6,6.6-3,11.9,3.6,11.9h4.6c6.6,0,15.6-5.3,20.2-11.9l3.2-4.6c2.2-3.1,5.6-6.2,9.4-8.4l0,0c3.8-2.2,7.7-3.5,10.8-3.5h4.6
	c3.1,0,5.3,1.3,6,3.5l0,0c0.7,2.2-0.2,5.2-2.4,8.4l-3.2,4.6c-4.6,6.6-3,11.9,3.6,11.9h0.8h3.8h0.8c6.6,0,15.6-5.3,20.2-11.9l3.2-4.6
	c2.2-3.1,5.6-6.2,9.4-8.4l0,0c3.8-2.2,7.7-3.5,10.8-3.5h4.6c3.1,0,5.3,1.3,6,3.5l0,0c0.7,2.2-0.2,5.2-2.4,8.4l-3.2,4.6
	c-4.6,6.6-3,11.9,3.6,11.9h4.6c6.6,0,15.6-5.3,20.2-11.9l3.2-4.6c4.6-6.6,3-11.9-3.6-11.9H143c-3.1,0-5.3-1.3-6-3.5l0,0
	c-0.7-2.2,0.2-5.2,2.4-8.4l3.2-4.6C144.8,107.2,148.2,104.1,152,101.9z M111.1,114.9c-2.2,3.1-5.6,6.2-9.4,8.4l0,0
	c-3.8,2.2-7.7,3.5-10.8,3.5h-0.8h-3.8h-0.8c-3.1,0-5.3-1.3-6-3.5l0,0c-0.7-2.2,0.2-5.2,2.4-8.4l3.2-4.6c2.2-3.1,5.6-6.2,9.4-8.4l0,0
	c3.8-2.2,7.7-3.5,10.8-3.5h0.8h3.8h0.8c3.1,0,5.3,1.3,6,3.5s-0.2,5.2-2.4,8.4L111.1,114.9z"/>
</svg>
