<?xml version="1.0" encoding="UTF-8"?>
<svg id="Layer_1" data-name="Layer 1" xmlns="http://www.w3.org/2000/svg" viewBox="0 0 116.07 110.66">
  <path d="M50.22,1.14c11.74-3.65,25.41,1.75,31.53,12.4,4.89,7.97,5.09,18.41,.92,26.73-1.87,3.77-1.98,8.85,1.24,11.93,4.1,4.11,10.49,2.86,15.38,5.37,11.57,4.76,18.77,18.04,16.29,30.33-1.89,11.28-11.5,20.75-22.83,22.38-10.09,1.79-20.84-2.75-26.78-11.06-2.28-3.46-6.74-6.31-10.9-4.38-4.8,2.27-6.76,7.85-11.28,10.57-11.81,9.02-30.47,5.91-38.73-6.43-8.72-11.65-5.84-29.83,6.07-38.2,4.7-3.84,10.77-4.91,16.55-6,5.43-1.33,8.46-7.63,6.29-12.77-2.32-5.22-4.24-10.83-3.56-16.64,.81-11.14,9.06-21.22,19.81-24.23Z"/>
</svg>