<?xml version="1.0" encoding="utf-8"?>
<!-- Generator: Adobe Illustrator 28.2.0, SVG Export Plug-In . SVG Version: 6.00 Build 0)  -->
<svg version="1.1" id="Layer_1" xmlns="http://www.w3.org/2000/svg" xmlns:xlink="http://www.w3.org/1999/xlink" x="0px" y="0px"
	 viewBox="0 0 200 200" style="enable-background:new 0 0 200 200;" xml:space="preserve">
<path d="M133.3,85.7L133.3,85.7c4.9-2.9,10-4.5,14.1-4.5h6c8.6,0,20.3-6.9,26.3-15.5l4.2-6c6-8.6,3.9-15.5-4.6-15.5h-6
	c-8.6,0-20.3,6.9-26.3,15.5l-4.2,6c-2.9,4.1-7.3,8-12.2,11l0,0c-4.9,2.9-10,4.5-14.1,4.5h-6c-4.1,0-6.9-1.6-7.8-4.5l0,0
	c-0.9-2.9,0.3-6.8,3.1-11l4.2-6c6-8.6,3.9-15.5-4.6-15.5h-6c-8.6,0-20.3,6.9-26.3,15.5l-4.2,6c-6,8.6-3.9,15.5,4.6,15.5h6
	c4.1,0,6.9,1.6,7.8,4.5v0c0.9,2.9-0.3,6.8-3.1,11l-4.2,6c-2.9,4.1-7.3,8-12.2,11l0,0c-4.9,2.9-10,4.5-14.1,4.5h-6
	c-8.6,0-20.3,6.9-26.3,15.5l-4.2,6c-6,8.6-3.9,15.5,4.6,15.5h6c8.6,0,20.3-6.9,26.3-15.5l4.2-6c2.9-4.1,7.3-8,12.2-11l0,0
	c4.9-2.9,10-4.5,14.1-4.5h6c4.1,0,6.9,1.6,7.8,4.5l0,0c0.9,2.9-0.3,6.8-3.1,11l-4.2,6c-6,8.6-3.9,15.5,4.6,15.5h6
	c8.6,0,20.3-6.9,26.3-15.5l4.2-6c6-8.6,3.9-15.5-4.6-15.5h-6c-4.1,0-6.9-1.6-7.8-4.5l0,0c-0.9-2.9,0.3-6.8,3.1-11l4.2-6
	C123.9,92.5,128.3,88.6,133.3,85.7z"/>
</svg>
