<?xml version="1.0" encoding="utf-8"?>
<!-- Generator: Adobe Illustrator 28.2.0, SVG Export Plug-In . SVG Version: 6.00 Build 0)  -->
<svg version="1.1" id="Layer_1" xmlns="http://www.w3.org/2000/svg" xmlns:xlink="http://www.w3.org/1999/xlink" x="0px" y="0px"
	 viewBox="0 0 141.6 98.5" style="enable-background:new 0 0 141.6 98.5;" xml:space="preserve">
<path d="M63.7,7c3.6-1.4,7.9-0.4,10.5,2.4c4.3,5.2,5.3,12.5,10.1,17.3c6.2,4.1,14.3,2,20.9,5.1c4.4,2.5,6.3,8.5,3.9,13
	c-3.7,6.2-11.4,9.4-13.8,16.4c-0.7,6.3,2.1,12.3,2.2,18.6c-0.1,5.7-6,10.5-11.6,9.3c-6.6-1.8-11.8-7.2-18.7-8.2
	C60.3,81.8,55,87.1,48.5,89c-6.6,1.5-13.2-5.2-11.5-11.7c0.4-6,3.7-12.2,1.3-18.1c-3.2-5.3-8.9-8.7-12.6-13.6
	c-3.3-4.8-1.1-12.1,4.3-14.3c6-2,12.6-1.3,18.4-3.6C56.1,23,55.1,10.7,63.7,7L63.7,7z"/>
</svg>
