<?xml version="1.0" encoding="utf-8"?>
<!-- Generator: Adobe Illustrator 28.2.0, SVG Export Plug-In . SVG Version: 6.00 Build 0)  -->
<svg version="1.1" id="Layer_1" xmlns="http://www.w3.org/2000/svg" xmlns:xlink="http://www.w3.org/1999/xlink" x="0px" y="0px"
	 viewBox="0 0 500 500" style="enable-background:new 0 0 500 500;" xml:space="preserve">
<g>
	<path d="M182.8,295c13.1-1.2,27.6,0.2,38.8-8c11.9-8.3,14.1-23.6,14.1-37c-0.1-12.5-1.6-26.7-11.8-35.2
		c-10.1-9.4-24.6-8.7-37.4-9.5c-27.7-1.4-53.2-20.5-63.2-46.2c-13.3-32.6,0.6-73,31.4-90.3c23.4-13.7,54.5-13.1,77,2.1
		c19.9,12.6,32.5,35.5,33.1,59c0.4,11.9,0.7,25.1,9.1,34.6c8.6,10.3,22.8,11.6,35.2,11.9c15.2,0.1,30.3,4.7,42.6,13.8
		c22,15.2,33.8,43.3,29.9,69.7c-3.8,30.8-29.7,57.4-60.3,62.1c-14.4,2-30.3-0.4-42.9,8.4c-12.1,8.3-13.9,24.2-14.2,37.7
		c0.1,20-8.5,39.9-23.6,53.2c-19.6,19.4-50.9,24.8-76.4,14.7c-18.8-7.2-34.3-22.6-41.5-41.4c-8.7-21.8-6.1-47.8,7-67.2
		C141.3,309.3,161.5,297.1,182.8,295z"/>
</g>
</svg>
