<?xml version="1.0" encoding="utf-8"?>
<!-- Generator: Adobe Illustrator 28.2.0, SVG Export Plug-In . SVG Version: 6.00 Build 0)  -->
<svg version="1.1" id="Layer_1" xmlns="http://www.w3.org/2000/svg" xmlns:xlink="http://www.w3.org/1999/xlink" x="0px" y="0px"
	 viewBox="0 0 500 500" style="enable-background:new 0 0 500 500;" xml:space="preserve">
<g>
	<path d="M201.3,274c-7-0.6-14.7,0.1-20.6-4.3c-6.3-4.4-7.5-12.6-7.5-19.7c0.1-6.6,0.8-14.2,6.3-18.8c5.4-5,13.1-4.6,19.9-5
		c14.8-0.7,28.3-10.9,33.6-24.6c7.1-17.4-0.3-38.9-16.7-48.1c-12.5-7.3-29-7-41,1.1c-10.6,6.7-17.3,18.9-17.6,31.4
		c-0.2,6.3-0.4,13.4-4.8,18.4c-4.6,5.5-12.1,6.2-18.8,6.3c-8.1,0.1-16.2,2.5-22.7,7.3c-11.7,8.1-18,23.1-15.9,37.1
		c2,16.4,15.8,30.6,32.1,33.1c7.7,1.1,16.2-0.2,22.9,4.5c6.4,4.4,7.4,12.9,7.5,20.1c-0.1,10.7,4.5,21.2,12.6,28.4
		c10.5,10.3,27.1,13.2,40.7,7.8c10-3.9,18.3-12,22.1-22.1c4.6-11.6,3.3-25.4-3.7-35.8C223.4,281.6,212.6,275.1,201.3,274z"/>
	<path d="M378.8,223.8H248.4c-14.5,0-26.2,11.7-26.2,26.2c0,14.5,11.7,26.2,26.2,26.2h130.4c14.5,0,26.2-11.7,26.2-26.2
		C405,235.5,393.3,223.8,378.8,223.8z"/>
</g>
</svg>
